PathFileType	4	(X/Y/Z)	/Users/itak/Documents/Research/Walk-IL/dataset/trc/00529_00183.trc
DataRate	CameraRate	NumFrames	NumMarkers	Units	OrigDataRate	OrigDataStartFrame	OrigNumFrames
100.000000	100.000000	4	53	mm	100.000000	360	481
Frame#	Time	RPSI			LPSI			L3			STRN			T10			C7			CLAV			RBAK			LBAK			LSHO			LUPA			LAEL			LAOL			LWTS			LWPS			LFRA			LIFD			LHPS			LHTS			RSHO			RUPA			RAEL			RAOL			RWTS			RWPS			RFRA			RIFD			RHTS			RHPS			RBHD			LFHD			RFHD			LBHD			LHIP			RHIP			RASI			LASI			LKNE			LTHI			LANK			LTIP			LTOE			LMT1			LMT5			LHEE			RKNE			RTHI			RANK			RTIP			RTOE			RMT1			RMT5			RHEE			
		X1	Y1	Z1	X2	Y2	Z2	X3	Y3	Z3	X4	Y4	Z4	X5	Y5	Z5	X6	Y6	Z6	X7	Y7	Z7	X8	Y8	Z8	X9	Y9	Z9	X10	Y10	Z10	X11	Y11	Z11	X12	Y12	Z12	X13	Y13	Z13	X14	Y14	Z14	X15	Y15	Z15	X16	Y16	Z16	X17	Y17	Z17	X18	Y18	Z18	X19	Y19	Z19	X20	Y20	Z20	X21	Y21	Z21	X22	Y22	Z22	X23	Y23	Z23	X24	Y24	Z24	X25	Y25	Z25	X26	Y26	Z26	X27	Y27	Z27	X28	Y28	Z28	X29	Y29	Z29	X30	Y30	Z30	X31	Y31	Z31	X32	Y32	Z32	X33	Y33	Z33	X34	Y34	Z34	X35	Y35	Z35	X36	Y36	Z36	X37	Y37	Z37	X38	Y38	Z38	X39	Y39	Z39	X40	Y40	Z40	X41	Y41	Z41	X42	Y42	Z42	X43	Y43	Z43	X44	Y44	Z44	X45	Y45	Z45	X46	Y46	Z46	X47	Y47	Z47	X48	Y48	Z48	X49	Y49	Z49	X50	Y50	Z50	X51	Y51	Z51	X52	Y52	Z52	X53	Y53	Z53	

361	3.6	711.1992797851562	936.3424072265625	517.0857543945312	785.6239624023438	939.45361328125	418.151123046875	738.8495483398438	1005.132873535156	467.6983337402344	912.5213012695312	1184.226440429688	572.1314086914062	713.6728515625	1106.260009765625	462.0287780761719	731.1821899414062	1339.527587890625	474.7129516601562	874.1045532226562	1275.69482421875	549.7164306640625	657.516845703125	1214.37890625	533.8577270507812	754.3432006835938	1283.626098632812	388.8360290527344	869.1602172851562	1336.277709960938	366.1426696777344	889.9639892578125	1209.69677734375	308.5520935058594	915.0818481445312	1001.002563476562	289.8310241699219	823.2880859375	989.16162109375	325.2614135742188	988.1713256835938	814.434814453125	355.692626953125	930.0941772460938	778.449462890625	291.1069030761719	933.0040283203125	917.199462890625	294.6224670410156	987.1385498046875	657.2614135742188	368.831787109375	951.0874633789062	724.1837158203125	304.6635437011719	1002.995544433594	736.1290893554688	341.9356994628906	711.1519165039062	1338.606689453125	632.0486450195312	674.436767578125	1270.209350585938	678.37060546875	683.1842041015625	1003.367980957031	730.7310791015625	659.189453125	983.5396118164062	670.6357421875	798.9185791015625	811.4530639648438	765.630859375	713.0882568359375	782.4223022460938	764.4734497070312	687.967529296875	950.8583984375	741.9275512695312	811.4330444335938	651.9223022460938	774.3873901367188	806.0682983398438	719.1288452148438	796.2758178710938	738.4427490234375	711.2093505859375	779.0681762695312	715.3997192382812	1496.322265625	552.6885986328125	894.1690063476562	1569.562377929688	500.0575866699219	822.5819702148438	1566.940307617188	605.18603515625	795.0634765625	1494.60791015625	412.2349548339844	955.9912109375	877.178466796875	382.1328735351562	719.2606811523438	834.150634765625	680.2975463867188	837.638427734375	884.4877319335938	690.2957763671875	980.0819091796875	913.1438598632812	494.7580871582031	1028.757568359375	472.6111145019531	504.138671875	1018.201293945312	623.890625	454.3348999023438	992.91259765625	38.59259796142578	506.4749755859375	1030.85888671875	317.0049438476562	504.4049682617188	1131.694091796875	28.95700073242188	662.6309204101562	1048.599365234375	38.07089233398438	649.6951904296875	1088.906494140625	32.1771125793457	555.9541015625	922.814453125	38.79413986206055	539.074462890625	756.864990234375	450.9007568359375	656.9156494140625	749.0068359375	704.5197143554688	692.5654907226562	476.7265014648438	184.5458068847656	467.552490234375	699.5584106445312	333.9837951660156	610.4613037109375	602.8323364257812	35.61050033569336	505.0669860839844	589.9740600585938	81.68267822265625	448.3910217285156	521.3636474609375	95.06290435791016	516.0477294921875	473.4653625488281	218.7413177490234	406.5623779296875	
362	3.61	717.9156494140625	937.5109252929688	519.1779174804688	793.0494384765625	941.1891479492188	420.7359924316406	746.330810546875	1006.912719726562	470.0340576171875	919.8827514648438	1185.362182617188	575.9633178710938	721.7265625	1108.147338867188	464.5348205566406	739.5394897460938	1341.293212890625	477.6537780761719	881.8419189453125	1276.956298828125	553.4420776367188	665.1888427734375	1216.2705078125	536.1016845703125	763.0833740234375	1285.462768554688	391.7525634765625	878.1564331054688	1337.876342773438	369.9824829101562	899.27978515625	1211.460083007812	312.2262878417969	925.1312255859375	1002.788513183594	293.2040710449219	832.9873657226562	990.7462768554688	327.4885559082031	998.943359375	817.6815795898438	360.0845642089844	942.2433471679688	780.5071411132812	294.9802856445312	943.5730590820312	919.3681030273438	298.2997436523438	1000.982727050781	660.6920776367188	373.4934997558594	964.035400390625	726.7554931640625	308.9558410644531	1015.421508789062	739.7626342773438	346.4803161621094	718.5851440429688	1340.206665039062	634.8922729492188	681.4104614257812	1271.844848632812	680.8920288085938	688.4390258789062	1004.931518554688	732.9561157226562	664.5775756835938	985.5707397460938	672.5548706054688	801.4969482421875	811.1123657226562	767.03076171875	715.1897583007812	783.5149536132812	765.5192260742188	692.5493774414062	952.4246826171875	743.9939575195312	811.203857421875	651.1982421875	774.2500610351562	807.0608520507812	718.2918090820312	796.774169921875	739.3245239257812	711.7505493164062	779.4617919921875	722.4617309570312	1497.1796875	555.237548828125	900.84814453125	1571.751953125	503.1943969726562	828.8666381835938	1568.863037109375	608.0863647460938	802.7487182617188	1495.639282226562	415.1875610351562	963.3218994140625	878.5703125	385.4337158203125	725.1115112304688	835.073974609375	682.4349365234375	843.42626953125	885.9517822265625	693.21044921875	986.8619384765625	914.1322021484375	498.3475952148438	1031.910522460938	472.5462646484375	505.385498046875	1023.037292480469	624.419921875	456.7128601074219	993.0527954101562	38.6079216003418	506.3814697265625	1032.923095703125	316.8240051269531	505.0107727050781	1131.60693359375	29.0154857635498	662.598388671875	1048.611083984375	38.08421325683594	649.6491088867188	1088.970825195312	32.02349853515625	555.935302734375	922.88916015625	38.83936309814453	538.9603881835938	769.139892578125	451.9632263183594	664.0700073242188	755.8955078125	705.839599609375	695.6721801757812	489.6279296875	187.7825775146484	473.54443359375	712.2669067382812	336.1142272949219	617.8395385742188	613.3172607421875	37.66949081420898	517.842041015625	602.102783203125	82.97294616699219	459.7157592773438	532.4320678710938	99.60678100585938	525.52294921875	487.6985168457031	220.1093597412109	411.5038146972656	
363	3.62	724.401611328125	938.8088989257812	521.3312377929688	800.1688232421875	942.891357421875	423.3253479003906	753.51904296875	1008.685913085938	472.2832946777344	927.0422973632812	1186.509399414062	579.7633056640625	729.5408935546875	1110.0791015625	466.9591369628906	747.747314453125	1343.091186523438	480.5544128417969	889.3876342773438	1278.236938476562	557.14697265625	672.6801147460938	1218.225463867188	538.2633666992188	771.6943359375	1287.347534179688	394.6283874511719	887.0154418945312	1339.529418945312	373.8343505859375	908.5511474609375	1213.299926757812	315.9192810058594	935.1506958007812	1004.668273925781	296.6049499511719	842.64697265625	992.4024658203125	329.7187805175781	1009.639770507812	820.9564819335938	364.4115905761719	954.2545166015625	782.7035522460938	298.8377075195312	954.1033325195312	921.6649780273438	301.9749450683594	1014.6533203125	664.1808471679688	377.9883422851562	976.8369750976562	729.4463500976562	313.1422729492188	1027.701293945312	743.446533203125	350.9106140136719	725.8301391601562	1341.843627929688	637.6748046875	688.1361694335938	1273.546142578125	683.3381958007812	693.3565673828125	1006.542419433594	734.9920043945312	669.7195434570312	987.63623046875	674.2830200195312	803.9631958007812	811.0457153320312	768.4015502929688	717.2671508789062	784.7789306640625	766.5591430664062	696.8596801757812	954.0369262695312	745.8541259765625	811.0800170898438	650.85107421875	774.3870239257812	808.0693359375	717.8490600585938	797.4263305664062	740.2649536132812	712.5382690429688	779.9987182617188	729.4187622070312	1498.06982421875	557.8239135742188	907.4322509765625	1573.906372070312	506.3662414550781	835.0690307617188	1570.76318359375	611.0230712890625	810.29736328125	1496.721313476562	418.2082214355469	970.300537109375	879.817138671875	388.6303100585938	730.8623657226562	836.22607421875	684.67041015625	849.1285400390625	887.5315551757812	696.0277099609375	993.4199829101562	915.1082153320312	501.7438049316406	1034.94384765625	472.5146789550781	506.7799377441406	1027.674194335938	624.9456787109375	459.1947326660156	993.1608276367188	38.63004684448242	506.3479919433594	1034.911743164062	316.6692504882812	505.8175354003906	1131.541381835938	29.04451751708984	662.5880126953125	1048.6005859375	38.06778335571289	649.6524658203125	1089.003662109375	31.91874694824219	555.9384765625	922.9447631835938	38.89022064208984	538.8873901367188	781.0347290039062	453.4731750488281	670.9002685546875	762.6677856445312	707.3944091796875	698.8695678710938	503.270751953125	189.5930328369141	479.8128051757812	724.7457275390625	338.3871154785156	625.2056274414062	625.116455078125	39.74424743652344	531.5946655273438	615.3737182617188	83.57216644287109	471.8590698242188	544.5968017578125	103.298210144043	535.6907348632812	502.609130859375	219.7192230224609	416.6492614746094	
364	3.63	730.6774291992188	940.231201171875	523.5619506835938	806.97119140625	944.54296875	425.9223327636719	760.4279174804688	1010.449523925781	474.4639282226562	934.01953125	1187.667602539062	583.5031127929688	737.1217651367188	1112.03759765625	469.3116760253906	755.798095703125	1344.911254882812	483.42236328125	896.7532958984375	1279.53515625	560.8145141601562	680.0029296875	1220.227905273438	540.3713989257812	780.1612548828125	1289.272583007812	397.4681396484375	895.721923828125	1341.23291015625	377.6842346191406	917.76611328125	1215.208129882812	319.6225891113281	945.1277465820312	1006.638061523438	300.0413513183594	852.2521362304688	994.121337890625	331.9678039550781	1020.275939941406	824.2413940429688	368.6830444335938	966.1158447265625	785.0397338867188	302.6771545410156	964.5830078125	924.0826416015625	305.6479187011719	1028.070678710938	667.6911010742188	382.3240356445312	989.4620361328125	732.24365234375	317.2211608886719	1039.809814453125	747.1412353515625	355.2471008300781	732.9071044921875	1343.509887695312	640.40283203125	694.642822265625	1275.309692382812	685.721923828125	697.935302734375	1008.195434570312	736.82080078125	674.6154174804688	989.732666015625	675.8011474609375	806.3211059570312	811.2491455078125	769.7673950195312	719.3233032226562	786.1821899414062	767.5642700195312	700.8967895507812	955.6795654296875	747.4676513671875	811.116943359375	650.8641357421875	774.82763671875	809.10302734375	717.7899780273438	798.2572631835938	741.27392578125	713.543212890625	780.6671752929688	736.267578125	1498.9912109375	560.4478149414062	913.9197998046875	1576.022827148438	509.571044921875	841.1835327148438	1572.64306640625	613.9893188476562	817.7108154296875	1497.85302734375	421.2844848632812	976.9423828125	880.9166870117188	391.7049255371094	736.5900268554688	837.6231689453125	687.0405883789062	854.7958984375	889.2202758789062	698.7350463867188	999.7857666015625	916.06982421875	504.9221496582031	1037.822875976562	472.4885559082031	508.2956848144531	1032.100463867188	625.4235229492188	461.7451171875	993.235107421875	38.66069030761719	506.3892211914062	1036.796630859375	316.5170288085938	506.7988891601562	1131.5078125	29.03707313537598	662.6050415039062	1048.570434570312	38.01511383056641	649.7099609375	1089.002685546875	31.86493110656738	555.9705810546875	922.9752197265625	38.94393920898438	538.8713989257812	792.4970703125	455.3726501464844	677.4376831054688	769.37646484375	709.18310546875	702.201171875	517.57763671875	189.9198150634766	486.416015625	736.9429931640625	340.7528991699219	632.5703125	638.2010498046875	41.63943481445312	546.05322265625	629.7379150390625	83.49871826171875	484.6215515136719	557.7997436523438	105.976203918457	546.3770141601562	518.10205078125	217.6433563232422	422.1394653320312	
